<svg width="255" height="28" viewBox="0 0 255 28" fill="none" xmlns="http://www.w3.org/2000/svg">
<g clip-path="url(#clip0_2_129)">
<path d="M37.6083 27.5391C37.2786 27.5391 37.0646 27.4118 36.9663 27.1573C36.868 26.9029 36.8159 26.6021 36.8159 26.2493V9.2864C36.8159 8.95675 36.8391 8.77168 36.8853 8.72541C36.9316 8.67914 37.1167 8.65601 37.4463 8.65601H42.3623C43.9412 8.65601 45.4044 8.69649 46.7404 8.78324C48.0763 8.87 49.2504 9.08977 50.2567 9.44256C51.263 9.80113 52.0438 10.3737 52.5932 11.1718C53.1485 11.9699 53.4261 13.0862 53.4261 14.5205C53.4261 15.5499 53.2121 16.4001 52.7841 17.071C52.3561 17.7418 51.7893 18.2739 51.0838 18.6556C50.3782 19.0373 49.6032 19.3207 48.7646 19.4942C47.9202 19.6677 47.0874 19.7718 46.2661 19.8065L52.5007 26.365C52.6916 26.5559 52.7899 26.7583 52.7899 26.9723C52.7899 27.3424 52.599 27.5333 52.2115 27.5333C52.0959 27.5333 51.9686 27.5044 51.824 27.4407C51.6795 27.3771 51.5349 27.273 51.4018 27.1284L44.6063 19.8759H38.2676V26.2493C38.2676 26.579 38.2271 26.874 38.1461 27.14C38.0652 27.406 37.8916 27.5391 37.6198 27.5391H37.6083ZM38.2502 18.7597H44.6063C45.9191 18.7597 47.1336 18.6672 48.2499 18.4821C49.3661 18.2971 50.2683 17.898 50.9507 17.2965C51.6332 16.695 51.9744 15.7697 51.9744 14.5262C51.9744 13.0225 51.6101 11.941 50.8756 11.2817C50.1411 10.6224 49.0595 10.206 47.631 10.0383C46.2025 9.87054 44.4443 9.78378 42.3507 9.78378H38.2502V18.7655V18.7597Z" fill="white"/>
<path d="M52.2004 27.6836C52.0674 27.6836 51.917 27.6489 51.7551 27.5795C51.5874 27.5101 51.4312 27.3944 51.2809 27.2325L44.5315 20.0263H38.4011V26.2551C38.4011 26.5963 38.3606 26.9086 38.2738 27.1862C38.1755 27.5159 37.9442 27.6894 37.6087 27.6894C37.1229 27.6894 36.9147 27.4349 36.828 27.2151C36.7181 26.9433 36.666 26.6194 36.666 26.2551V9.29215C36.666 8.83526 36.7065 8.69645 36.7759 8.63284C36.8453 8.56922 36.9783 8.52295 37.4352 8.52295H42.3512C43.9301 8.52295 45.4048 8.56343 46.7408 8.65019C48.0884 8.73694 49.2798 8.96249 50.2977 9.32107C51.3271 9.68543 52.1368 10.2869 52.7036 11.1024C53.2704 11.9179 53.5595 13.0745 53.5595 14.532C53.5595 15.5846 53.334 16.4694 52.8944 17.1577C52.4549 17.8459 51.865 18.3953 51.1363 18.7886C50.4191 19.1761 49.6268 19.4653 48.7766 19.6446C48.0363 19.8007 47.296 19.899 46.5673 19.9453L52.5879 26.2724C52.8019 26.4864 52.9176 26.7293 52.9176 26.9838C52.9176 27.4349 52.6631 27.6894 52.1946 27.6894L52.2004 27.6836ZM38.1119 19.7371H44.6588L51.4948 27.0359C51.6163 27.1689 51.7435 27.2614 51.8708 27.3135C51.998 27.3655 52.1137 27.3944 52.2062 27.3944C52.507 27.3944 52.64 27.273 52.64 26.978C52.64 26.8045 52.559 26.6368 52.3971 26.4691L45.9369 19.6793L46.255 19.6677C47.0705 19.633 47.9033 19.5289 48.7303 19.3554C49.5516 19.1819 50.3208 18.9043 51.009 18.5341C51.6915 18.164 52.2467 17.6493 52.6573 17.0015C53.0679 16.3538 53.2762 15.5267 53.2762 14.532C53.2762 13.1324 53.0043 12.0393 52.4723 11.2701C51.9402 10.5009 51.1768 9.9399 50.2051 9.59289C49.2162 9.24589 48.0479 9.02611 46.7293 8.93936C45.3991 8.85261 43.9301 8.81212 42.357 8.81212H37.441C37.146 8.81212 37.0304 8.82948 36.9899 8.84104C36.9783 8.88153 36.961 8.9972 36.961 9.29215V26.2551C36.961 26.5847 37.0072 26.8739 37.1056 27.1053C37.1576 27.2325 37.2617 27.3944 37.6145 27.3944C37.8227 27.3944 37.9384 27.3019 38.002 27.0995C38.0772 26.845 38.1119 26.5616 38.1119 26.2493V19.7313V19.7371ZM44.6125 18.9101H38.1119V9.63916H42.357C44.4448 9.63916 46.2261 9.72591 47.6546 9.89363C49.1063 10.0671 50.2225 10.4951 50.9801 11.1776C51.7435 11.8658 52.131 12.9936 52.131 14.532C52.131 15.8101 51.7725 16.7818 51.0553 17.4122C50.3555 18.031 49.4186 18.4416 48.2792 18.6325C47.1572 18.8175 45.9254 18.9159 44.6125 18.9159V18.9101ZM38.4011 18.6209H44.6125C45.908 18.6209 47.1283 18.5284 48.233 18.3433C49.3203 18.164 50.2051 17.7765 50.8644 17.1924C51.5122 16.6198 51.8419 15.7234 51.8419 14.532C51.8419 13.0803 51.4891 12.022 50.7893 11.3973C50.0837 10.7612 49.0137 10.3505 47.6257 10.1886C46.2087 10.0209 44.439 9.93412 42.3627 9.93412H38.4068V18.6267L38.4011 18.6209Z" fill="white"/>
<path d="M56.9259 27.7069C56.5963 27.7069 56.417 27.5565 56.3823 27.2557C56.3476 26.955 56.4112 26.6658 56.5673 26.3824L65.9019 9.5236C66.0812 9.19394 66.2257 8.96839 66.3241 8.84694C66.4282 8.72548 66.5785 8.66187 66.781 8.66187C66.9371 8.66187 67.0817 8.7197 67.2032 8.84115C67.3246 8.96261 67.4808 9.18816 67.66 9.52939L77.0119 26.4056C77.1334 26.6196 77.197 26.8393 77.197 27.0649C77.197 27.4929 77.0061 27.7069 76.6187 27.7069C76.4741 27.7069 76.3179 27.6548 76.1618 27.5449C76.0056 27.435 75.8437 27.2442 75.6875 26.9608L72.8073 21.7441H60.743L57.8281 27.0302C57.591 27.4813 57.2845 27.7069 56.9143 27.7069H56.9259ZM61.2462 20.7435H72.3273L66.7867 10.6282L61.2462 20.7435Z" fill="white"/>
<path d="M76.6299 27.8517C76.4564 27.8517 76.2714 27.788 76.0921 27.6666C75.9128 27.5451 75.7451 27.3369 75.5716 27.0304L72.7319 21.8831H60.841L57.9667 27.094C57.7064 27.5914 57.3536 27.8459 56.9256 27.8459C56.5266 27.8459 56.2837 27.6435 56.2374 27.2675C56.2027 26.9379 56.2663 26.614 56.4398 26.3075L65.7743 9.44864C65.9594 9.11899 66.104 8.88186 66.2139 8.74884C66.3469 8.59269 66.5378 8.51172 66.7807 8.51172C66.9773 8.51172 67.1508 8.5869 67.3012 8.73149C67.44 8.86451 67.5961 9.09585 67.787 9.45443L77.1389 26.3306C77.2719 26.5619 77.3413 26.8106 77.3413 27.0593C77.3413 27.5683 77.0868 27.8459 76.6184 27.8459L76.6299 27.8517ZM60.6675 21.5997H72.8996L75.8202 26.8916C75.9648 27.1519 76.1094 27.3312 76.2482 27.4237C76.3812 27.5162 76.5085 27.5625 76.6241 27.5625C76.8381 27.5625 77.0579 27.5047 77.0579 27.0651C77.0579 26.8685 77.0001 26.6661 76.8902 26.4752L67.5383 9.59901C67.3648 9.27514 67.2202 9.05537 67.1045 8.94548C67.0062 8.85294 66.9021 8.80668 66.7807 8.80668C66.6245 8.80668 66.5089 8.85294 66.4337 8.9397C66.3353 9.06115 66.1965 9.28092 66.023 9.59323L56.6885 26.4521C56.5439 26.7123 56.4861 26.9668 56.5208 27.2386C56.5439 27.4642 56.6654 27.5567 56.9198 27.5567C57.2379 27.5567 57.4924 27.3601 57.7064 26.9552L60.6617 21.5939L60.6675 21.5997ZM72.5699 20.8884H61.003L66.7865 10.3277L72.5699 20.8884ZM61.4888 20.5992H72.0841L66.7865 10.9292L61.4888 20.5992Z" fill="white"/>
<path d="M80.8815 27.5393C80.6096 27.5393 80.3378 27.5219 80.0602 27.4872C79.7826 27.4525 79.6438 27.2733 79.6438 26.9436C79.6438 26.6602 79.7768 26.5041 80.0429 26.4694C80.3089 26.4347 80.5865 26.4173 80.8815 26.4173H86.931V9.77825H80.8815C80.5865 9.77825 80.3089 9.7609 80.0429 9.72619C79.7768 9.69149 79.6438 9.53534 79.6438 9.25195C79.6438 8.92229 79.7826 8.743 80.0602 8.7083C80.3378 8.6736 80.6096 8.65625 80.8815 8.65625H94.4206C94.7502 8.65625 95.0336 8.6736 95.2765 8.7083C95.5194 8.743 95.6409 8.91072 95.6409 9.21725C95.6409 9.52377 95.5194 9.69149 95.2765 9.72619C95.0336 9.7609 94.7502 9.77825 94.4206 9.77825H88.3711V26.4173H94.4206C94.7502 26.4173 95.0336 26.4347 95.2765 26.4694C95.5194 26.5041 95.6409 26.6718 95.6409 26.9783C95.6409 27.2848 95.5194 27.4525 95.2765 27.4872C95.0336 27.5219 94.7502 27.5393 94.4206 27.5393H80.8815Z" fill="white"/>
<path d="M94.4204 27.6837H80.8813C80.6037 27.6837 80.3261 27.6663 80.0427 27.6316C79.8402 27.6085 79.499 27.4871 79.499 26.9434C79.499 26.5906 79.6841 26.3708 80.0253 26.3246C80.2971 26.2899 80.5863 26.2725 80.8813 26.2725H86.7862V9.92264H80.8813C80.5805 9.92264 80.2914 9.90529 80.0253 9.87059C79.6899 9.83011 79.499 9.61034 79.499 9.25176C79.499 8.7139 79.8402 8.59244 80.0427 8.56353C80.3261 8.52883 80.6037 8.51147 80.8813 8.51147H94.4204C94.7501 8.51147 95.045 8.52883 95.2937 8.56353C95.4788 8.58666 95.7853 8.70811 95.7853 9.21706C95.7853 9.72601 95.4788 9.84168 95.2937 9.87059C95.045 9.90529 94.7501 9.92264 94.4204 9.92264H88.5155V26.2725H94.4204C94.7501 26.2725 95.045 26.2899 95.2937 26.3246C95.4788 26.3477 95.7853 26.4692 95.7853 26.9781C95.7853 27.4871 95.4788 27.6027 95.2937 27.6316C95.045 27.6663 94.7501 27.6837 94.4204 27.6837ZM80.8813 26.5675C80.5921 26.5675 80.3203 26.5848 80.06 26.6195C79.8692 26.6427 79.7882 26.741 79.7882 26.9492C79.7882 27.2673 79.9328 27.3309 80.0774 27.3483C80.3492 27.383 80.6152 27.4003 80.8813 27.4003H94.4204C94.7385 27.4003 95.0219 27.383 95.2532 27.3483C95.3747 27.3309 95.4903 27.2731 95.4903 26.9839C95.4903 26.6947 95.3689 26.6369 95.2532 26.6195C95.0161 26.5848 94.7385 26.5675 94.4204 26.5675H88.2263V9.63925H94.4204C94.7385 9.63925 95.0219 9.6219 95.2532 9.5872C95.3747 9.56985 95.4903 9.51202 95.4903 9.22284C95.4903 8.93367 95.3689 8.87583 95.2532 8.85848C95.0161 8.82378 94.7385 8.80643 94.4204 8.80643H80.8813C80.6152 8.80643 80.3492 8.82378 80.0774 8.85848C79.9328 8.87583 79.7882 8.93945 79.7882 9.25754C79.7882 9.46575 79.8692 9.56407 80.06 9.5872C80.3203 9.6219 80.5921 9.63925 80.8813 9.63925H87.0754V26.5675H80.8813Z" fill="white"/>
<path d="M111.129 27.8752C109.527 27.8752 107.942 27.7711 106.375 27.5686C104.807 27.3662 103.425 27.1175 102.222 26.8226C101.019 26.5276 100.146 26.2558 99.6024 26.0071C99.2958 25.8625 99.1455 25.6427 99.1455 25.3478C99.1455 25.0181 99.29 24.8562 99.585 24.8562C99.666 24.8562 99.7412 24.8735 99.8221 24.9082C100.412 25.1454 101.32 25.4056 102.552 25.6948C103.784 25.984 105.178 26.2327 106.728 26.4409C108.283 26.6491 109.833 26.7532 111.378 26.7532C112.922 26.7532 114.269 26.6144 115.553 26.3368C116.837 26.0592 117.867 25.5965 118.647 24.9372C119.428 24.2778 119.816 23.3872 119.816 22.2594C119.816 21.3688 119.521 20.669 118.937 20.1658C118.347 19.6626 117.56 19.2867 116.565 19.038C115.571 18.7893 114.454 18.6158 113.217 18.5117C111.979 18.4076 110.701 18.3324 109.376 18.2804C108.052 18.2283 106.774 18.1416 105.536 18.0201C104.299 17.8987 103.182 17.6847 102.188 17.3955C101.193 17.1005 100.4 16.661 99.8163 16.0711C99.2264 15.4812 98.9373 14.7004 98.9373 13.7172C98.9373 12.6299 99.2264 11.7393 99.8106 11.0337C100.395 10.3281 101.175 9.77288 102.159 9.37382C103.142 8.97476 104.241 8.69137 105.461 8.53522C106.681 8.37906 107.931 8.2981 109.203 8.2981C110.603 8.2981 111.967 8.37907 113.286 8.541C114.61 8.70294 115.796 8.91693 116.843 9.17718C117.895 9.43744 118.705 9.70348 119.284 9.9753C119.463 10.0563 119.555 10.2066 119.555 10.4322C119.555 10.5884 119.503 10.7387 119.393 10.8717C119.284 11.0048 119.139 11.0742 118.942 11.0742C118.827 11.0742 118.734 11.051 118.653 11.0048C117.468 10.5074 116.033 10.1199 114.35 9.8365C112.667 9.55311 110.973 9.41431 109.267 9.41431C107.705 9.41431 106.253 9.54154 104.894 9.78445C103.541 10.0331 102.448 10.4611 101.615 11.0742C100.782 11.6872 100.372 12.5316 100.372 13.6131C100.372 14.3939 100.667 14.9954 101.251 15.4291C101.841 15.8571 102.627 16.1752 103.622 16.3892C104.617 16.5974 105.733 16.7478 106.971 16.8287C108.208 16.9097 109.486 16.9907 110.811 17.0658C112.135 17.141 113.413 17.2567 114.651 17.4129C115.889 17.569 117.005 17.8235 118 18.1763C118.994 18.5291 119.787 19.0264 120.371 19.6858C120.961 20.3393 121.25 21.201 121.25 22.2594C121.25 23.3178 120.972 24.2489 120.411 24.9719C119.85 25.6948 119.093 26.2674 118.133 26.6896C117.173 27.1117 116.085 27.4125 114.882 27.5976C113.674 27.7768 112.419 27.8694 111.123 27.8694L111.129 27.8752Z" fill="white"/>
<path d="M111.129 28.0196C109.527 28.0196 107.919 27.9155 106.358 27.7131C104.796 27.5106 103.397 27.2562 102.194 26.967C100.985 26.672 100.1 26.3944 99.5508 26.1457C99.198 25.9722 99.0071 25.7004 99.0071 25.3534C99.0071 24.9428 99.2153 24.7172 99.5912 24.7172C99.6896 24.7172 99.7879 24.7403 99.8862 24.7808C100.459 25.0122 101.373 25.2782 102.593 25.5616C103.813 25.845 105.213 26.0995 106.757 26.3019C108.295 26.5101 109.857 26.6142 111.39 26.6142C112.922 26.6142 114.27 26.4754 115.536 26.2036C116.791 25.9317 117.809 25.4748 118.567 24.8387C119.307 24.2141 119.683 23.3523 119.683 22.2708C119.683 21.4264 119.405 20.7613 118.85 20.2871C118.283 19.8013 117.503 19.4311 116.537 19.1882C115.554 18.9453 114.437 18.766 113.211 18.6677C111.985 18.5694 110.696 18.4884 109.383 18.4421C108.064 18.3901 106.769 18.3033 105.537 18.1761C104.293 18.0489 103.16 17.8407 102.165 17.5457C101.153 17.245 100.332 16.7881 99.73 16.1866C99.1286 15.5851 98.8047 14.7465 98.8047 13.7286C98.8047 12.6124 99.1112 11.6813 99.7127 10.9525C100.308 10.2296 101.118 9.65704 102.119 9.2522C103.108 8.84736 104.23 8.56397 105.456 8.40203C108.012 8.07237 110.788 8.09551 113.321 8.40781C114.64 8.56975 115.843 8.78374 116.895 9.044C117.954 9.30425 118.781 9.57607 119.365 9.8479C119.527 9.9173 119.718 10.0792 119.718 10.4378C119.718 10.6287 119.654 10.808 119.527 10.9699C119.394 11.1434 119.203 11.2301 118.966 11.2301C118.827 11.2301 118.706 11.2012 118.607 11.1434C117.451 10.6634 116.016 10.2701 114.351 9.99249C112.679 9.71488 110.979 9.57029 109.29 9.57029C107.746 9.57029 106.289 9.69753 104.947 9.94043C103.622 10.1833 102.535 10.6055 101.725 11.2012C100.927 11.7854 100.54 12.5835 100.54 13.6245C100.54 14.3648 100.806 14.9142 101.361 15.3191C101.928 15.7355 102.709 16.0478 103.68 16.2502C104.663 16.4584 105.78 16.603 107.006 16.6898C108.238 16.7765 109.527 16.8517 110.84 16.9269C112.159 17.0021 113.454 17.1177 114.686 17.2739C115.93 17.43 117.063 17.6903 118.064 18.0431C119.076 18.4017 119.897 18.9222 120.493 19.5931C121.1 20.2755 121.412 21.1719 121.412 22.265C121.412 23.3581 121.117 24.3182 120.545 25.0642C119.972 25.8045 119.186 26.3944 118.208 26.8282C117.242 27.2562 116.132 27.5627 114.917 27.7478C113.703 27.927 112.431 28.0196 111.135 28.0196H111.129ZM99.5912 25.0064C99.412 25.0064 99.2963 25.0642 99.2963 25.3534C99.2963 25.5905 99.4177 25.7582 99.6722 25.8855C100.199 26.1284 101.072 26.4002 102.263 26.6894C103.455 26.9786 104.848 27.233 106.398 27.4297C109.198 27.794 112.182 27.8634 114.871 27.4644C116.063 27.2851 117.144 26.9843 118.087 26.5679C119.018 26.1573 119.77 25.5905 120.308 24.8907C120.846 24.1967 121.117 23.3176 121.117 22.2708C121.117 21.224 120.834 20.4143 120.273 19.7897C119.706 19.1535 118.925 18.6619 117.96 18.3207C116.982 17.9737 115.866 17.7192 114.646 17.5631C113.42 17.4069 112.13 17.2912 110.817 17.216C109.498 17.1409 108.209 17.0657 106.977 16.9789C105.739 16.8922 104.606 16.7476 103.611 16.5336C102.599 16.3196 101.783 15.9899 101.182 15.5504C100.557 15.0935 100.239 14.4458 100.239 13.6187C100.239 12.4909 100.679 11.5945 101.546 10.9583C102.39 10.3395 103.512 9.89417 104.883 9.64548C106.242 9.39679 107.723 9.26955 109.279 9.26955C110.985 9.26955 112.702 9.41414 114.385 9.69753C116.074 9.98092 117.532 10.3742 118.723 10.8774C118.792 10.9178 118.868 10.9352 118.954 10.9352C119.105 10.9352 119.209 10.8889 119.29 10.7848C119.377 10.6749 119.417 10.5593 119.417 10.432C119.417 10.218 119.319 10.1429 119.232 10.1082C118.665 9.84212 117.855 9.57607 116.814 9.3216C115.773 9.06713 114.582 8.85314 113.275 8.6912C110.765 8.3789 108.018 8.35576 105.485 8.68542C104.282 8.84157 103.183 9.11918 102.217 9.51246C101.263 9.89995 100.493 10.4494 99.9267 11.1318C99.3715 11.8085 99.0881 12.6818 99.0881 13.7228C99.0881 14.6598 99.3715 15.4174 99.9267 15.9784C100.493 16.5452 101.268 16.9789 102.24 17.2623C103.223 17.5515 104.339 17.7597 105.56 17.8869C106.786 18.0084 108.076 18.1009 109.388 18.1472C110.707 18.1992 111.997 18.2744 113.234 18.3785C114.472 18.4826 115.606 18.6561 116.606 18.9106C117.618 19.1651 118.434 19.5526 119.035 20.0673C119.654 20.5994 119.966 21.3397 119.966 22.2708C119.966 23.4391 119.556 24.376 118.746 25.0584C117.954 25.7235 116.89 26.2036 115.594 26.487C114.31 26.7646 112.893 26.9034 111.39 26.9034C109.886 26.9034 108.272 26.7993 106.716 26.5911C105.167 26.3829 103.755 26.1284 102.523 25.845C101.292 25.5558 100.366 25.2898 99.7763 25.0527C99.7127 25.0237 99.6549 25.0122 99.5912 25.0122V25.0064Z" fill="white"/>
<path d="M125.651 27.5392C125.437 27.5392 125.31 27.5045 125.269 27.4351C125.229 27.3657 125.211 27.2038 125.211 26.9435V9.46006C125.211 9.1304 125.234 8.91642 125.281 8.8181C125.327 8.71978 125.512 8.66772 125.842 8.66772H141.312C141.642 8.66772 141.931 8.68508 142.186 8.71978C142.44 8.75448 142.567 8.93377 142.567 9.26342C142.567 9.54681 142.44 9.70297 142.186 9.73767C141.931 9.77237 141.642 9.78972 141.312 9.78972H126.657V17.2099H141.231C141.48 17.2099 141.688 17.2446 141.856 17.314C142.024 17.3834 142.111 17.528 142.111 17.7536C142.111 18.0023 142.041 18.1642 141.897 18.2452C141.752 18.3261 141.573 18.3666 141.347 18.3666H126.657V26.4346H141.347C141.677 26.4346 141.966 26.4519 142.22 26.4866C142.475 26.5213 142.602 26.6775 142.602 26.9609C142.602 27.2905 142.498 27.464 142.29 27.4929C142.082 27.5219 141.81 27.5392 141.486 27.5508H125.662L125.651 27.5392Z" fill="white"/>
<path d="M125.651 27.6839C125.373 27.6839 125.217 27.6318 125.147 27.5103C125.113 27.4467 125.066 27.3253 125.066 26.9436V9.46012C125.066 8.99166 125.113 8.8355 125.147 8.76032C125.223 8.59259 125.437 8.52319 125.841 8.52319H141.312C141.648 8.52319 141.943 8.54054 142.203 8.57524C142.394 8.59838 142.712 8.72562 142.712 9.26348C142.712 9.61627 142.533 9.83604 142.203 9.88231C141.943 9.91701 141.642 9.93436 141.312 9.93436H126.801V17.0654H141.231C141.497 17.0654 141.729 17.1059 141.914 17.1753C142.07 17.2389 142.261 17.3893 142.261 17.7478C142.261 18.0544 142.162 18.2568 141.977 18.3667C141.815 18.4592 141.607 18.5055 141.353 18.5055H126.807V26.2842H141.353C141.688 26.2842 141.983 26.3016 142.243 26.3363C142.567 26.3826 142.752 26.6023 142.752 26.9551C142.752 27.4641 142.515 27.6029 142.313 27.6318C142.099 27.6607 141.827 27.6781 141.491 27.6896H125.662L125.651 27.6839ZM125.396 27.3658C125.396 27.3658 125.454 27.3947 125.651 27.3947H141.474C141.792 27.3831 142.058 27.3658 142.261 27.3368C142.313 27.3311 142.446 27.3137 142.446 26.9493C142.446 26.6891 142.324 26.637 142.191 26.6197C141.943 26.585 141.659 26.5676 141.335 26.5676H126.501V18.2105H141.335C141.538 18.2105 141.7 18.1758 141.815 18.1122C141.908 18.0601 141.954 17.9387 141.954 17.7478C141.954 17.5338 141.867 17.4702 141.792 17.4413C141.642 17.3777 141.445 17.3488 141.22 17.3488H126.501V9.6394H141.301C141.619 9.6394 141.908 9.62205 142.157 9.58735C142.29 9.57 142.411 9.51795 142.411 9.2577C142.411 8.93382 142.284 8.87599 142.157 8.85864C141.908 8.82394 141.624 8.80658 141.301 8.80658H125.83C125.46 8.80658 125.402 8.87599 125.402 8.87599C125.384 8.92225 125.35 9.05527 125.35 9.46012V26.9436C125.35 27.279 125.385 27.3542 125.39 27.36L125.396 27.3658Z" fill="white"/>
<path d="M155.811 27.5391C155.458 27.5391 155.245 27.4177 155.158 27.169C155.071 26.9203 155.031 26.6485 155.031 26.3535V9.84748C155.031 9.55252 155.077 9.2807 155.175 9.03201C155.273 8.78332 155.493 8.66187 155.846 8.66187C156.095 8.66187 156.262 8.7891 156.343 9.04357C156.424 9.29805 156.471 9.56409 156.471 9.84748V17.2677H171.467V9.84748C171.467 9.55252 171.502 9.2807 171.577 9.03201C171.652 8.78332 171.849 8.66187 172.179 8.66187C172.508 8.66187 172.722 8.7891 172.797 9.03201C172.873 9.2807 172.907 9.55252 172.907 9.84748V26.3535C172.907 26.6485 172.873 26.9203 172.797 27.169C172.722 27.4177 172.526 27.5391 172.196 27.5391C171.866 27.5391 171.652 27.4177 171.577 27.169C171.502 26.9203 171.467 26.6485 171.467 26.3535V18.3203H156.471V26.3535C156.471 26.6369 156.424 26.9029 156.326 27.1574C156.228 27.4119 156.06 27.5391 155.811 27.5391Z" fill="white"/>
<path d="M172.196 27.6838C171.687 27.6838 171.502 27.4235 171.438 27.2095C171.363 26.9493 171.322 26.6601 171.322 26.3536V18.4649H156.615V26.3536C156.615 26.6543 156.563 26.9377 156.459 27.2095C156.343 27.5218 156.118 27.6838 155.805 27.6838C155.285 27.6838 155.088 27.4293 155.019 27.2153C154.926 26.9551 154.886 26.6659 154.886 26.3536V9.84753C154.886 9.53523 154.938 9.24605 155.042 8.98001C155.123 8.76602 155.331 8.51733 155.846 8.51733C156.158 8.51733 156.378 8.68505 156.482 8.99736C156.569 9.2634 156.615 9.55258 156.615 9.84753V17.1231H171.322V9.84753C171.322 9.54101 171.363 9.25184 171.438 8.99158C171.502 8.77181 171.681 8.51733 172.178 8.51733C172.676 8.51733 172.872 8.77759 172.936 8.99158C173.011 9.25184 173.052 9.54101 173.052 9.84753V26.3536C173.052 26.6601 173.011 26.9493 172.936 27.2095C172.872 27.4293 172.693 27.6838 172.196 27.6838ZM156.326 18.1757H171.612V26.3536C171.612 26.6312 171.646 26.8914 171.716 27.1228C171.75 27.2384 171.837 27.3946 172.196 27.3946C172.554 27.3946 172.624 27.2384 172.658 27.1228C172.728 26.8914 172.762 26.6312 172.762 26.3536V9.84753C172.762 9.56993 172.728 9.30967 172.658 9.07255C172.624 8.95688 172.537 8.80072 172.178 8.80072C171.82 8.80072 171.75 8.95688 171.716 9.07255C171.646 9.30389 171.612 9.56414 171.612 9.84753V17.4123H156.326V9.84753C156.326 9.58149 156.285 9.32702 156.204 9.0899C156.141 8.89326 156.025 8.80651 155.84 8.80651C155.458 8.80651 155.354 8.96844 155.308 9.08411C155.221 9.31545 155.175 9.56993 155.175 9.84753V26.3536C155.175 26.6312 155.215 26.8857 155.296 27.1228C155.337 27.2384 155.435 27.4004 155.811 27.4004C156.002 27.4004 156.118 27.3136 156.193 27.1112C156.28 26.8741 156.326 26.6196 156.326 26.3594V18.1815V18.1757Z" fill="white"/>
<path d="M189.427 27.8917C185.135 27.8917 181.989 27.082 179.988 25.4684C177.987 23.8548 176.986 21.3968 176.986 18.1003C176.986 14.8037 177.987 12.3457 179.988 10.7321C181.989 9.11852 185.135 8.30884 189.427 8.30884C193.718 8.30884 196.87 9.11852 198.871 10.7321C200.878 12.3457 201.878 14.8037 201.878 18.1003C201.878 21.3968 200.878 23.8548 198.871 25.4684C196.864 27.082 193.718 27.8917 189.427 27.8917ZM189.427 26.7755C193.134 26.7755 195.893 26.1162 197.714 24.8033C199.536 23.4905 200.444 21.2523 200.444 18.1003C200.444 14.9483 199.536 12.7158 197.714 11.3972C195.898 10.0844 193.134 9.42505 189.427 9.42505C185.719 9.42505 182.961 10.0844 181.15 11.3972C179.34 12.7158 178.432 14.9483 178.432 18.1003C178.432 21.2523 179.34 23.4847 181.15 24.8033C182.961 26.1219 185.725 26.7755 189.427 26.7755Z" fill="white"/>
<path d="M189.426 28.0362C185.118 28.0362 181.914 27.2091 179.895 25.5782C177.871 23.9415 176.842 21.4257 176.842 18.0944C176.842 14.7631 177.871 12.2473 179.895 10.6106C181.914 8.97963 185.118 8.15259 189.426 8.15259C193.735 8.15259 196.939 8.97963 198.963 10.6048C200.993 12.2415 202.023 14.7573 202.023 18.0886C202.023 21.4199 200.993 23.9357 198.963 25.5724C196.939 27.2034 193.735 28.0304 189.426 28.0304V28.0362ZM189.426 8.44755C185.187 8.44755 182.041 9.25145 180.08 10.8361C178.125 12.415 177.137 14.8556 177.137 18.0944C177.137 21.3331 178.125 23.7738 180.08 25.3526C182.047 26.9373 185.187 27.7412 189.426 27.7412C193.666 27.7412 196.812 26.9373 198.784 25.3526C200.745 23.7738 201.739 21.3331 201.739 18.0944C201.739 14.8556 200.745 12.415 198.784 10.8361C196.818 9.25145 193.666 8.44755 189.426 8.44755ZM189.426 26.9142C185.708 26.9142 182.897 26.2433 181.063 24.9131C179.219 23.5771 178.282 21.2811 178.282 18.0944C178.282 14.9077 179.219 12.6116 181.063 11.2757C182.891 9.94547 185.708 9.27458 189.426 9.27458C193.145 9.27458 195.962 9.94547 197.795 11.2757C199.646 12.6116 200.583 14.9077 200.583 18.0944C200.583 21.2811 199.646 23.5713 197.795 24.9131C195.962 26.2433 193.145 26.9142 189.426 26.9142ZM189.426 9.56376C185.771 9.56376 183.013 10.2173 181.231 11.5128C179.467 12.7967 178.571 15.0118 178.571 18.1002C178.571 21.1885 179.467 23.4036 181.231 24.6818C183.013 25.9715 185.765 26.6308 189.426 26.6308C193.087 26.6308 195.84 25.9773 197.627 24.6818C199.397 23.3978 200.294 21.1828 200.294 18.1002C200.294 15.0176 199.397 12.7967 197.627 11.5186C195.84 10.2289 193.082 9.56954 189.426 9.56954V9.56376Z" fill="white"/>
<path d="M206.694 27.5392C206.365 27.5392 206.162 27.4235 206.087 27.1922C206.012 26.9609 205.966 26.6833 205.966 26.3536V9.58151C205.966 9.32126 206.035 9.10727 206.18 8.92798C206.318 8.75448 206.498 8.66772 206.712 8.66772C207.07 8.66772 207.417 8.91063 207.747 9.39644L218.25 25.1911L228.752 9.39644C229.071 8.91063 229.412 8.66772 229.788 8.66772C230.002 8.66772 230.181 8.75448 230.32 8.92798C230.459 9.10149 230.534 9.32126 230.534 9.58151V26.3536C230.534 26.6833 230.493 26.9609 230.412 27.1922C230.331 27.4235 230.129 27.5392 229.805 27.5392C229.522 27.5392 229.331 27.4235 229.238 27.1922C229.146 26.9609 229.094 26.6833 229.094 26.3536V11.305L219.082 26.0818C218.811 26.4635 218.533 26.6601 218.25 26.6601C217.943 26.6601 217.666 26.4693 217.417 26.0818L207.406 11.305V26.3536C207.406 26.6833 207.359 26.9609 207.261 27.1922C207.163 27.4235 206.978 27.5392 206.694 27.5392Z" fill="white"/>
<path d="M229.805 27.6839C229.377 27.6839 229.186 27.4467 229.105 27.2501C229.001 27.0014 228.949 26.7007 228.949 26.3537V11.7793L219.198 26.1628C218.573 27.0419 217.827 26.984 217.295 26.1628L207.55 11.7793V26.3537C207.55 26.7007 207.498 27.0014 207.394 27.2501C207.313 27.4467 207.122 27.6839 206.694 27.6839C206.202 27.6839 206.017 27.4409 205.948 27.2385C205.861 26.9956 205.821 26.6949 205.821 26.3537V9.58157C205.821 9.2924 205.902 9.03792 206.063 8.84129C206.231 8.63308 206.451 8.52319 206.711 8.52319C207.122 8.52319 207.509 8.78923 207.862 9.31553L218.249 24.9251L228.636 9.31553C228.978 8.78923 229.365 8.52319 229.793 8.52319C230.053 8.52319 230.267 8.6273 230.441 8.84129C230.603 9.04371 230.684 9.2924 230.684 9.58157V26.3537C230.684 26.6949 230.643 26.9956 230.556 27.2385C230.487 27.4409 230.302 27.6839 229.81 27.6839H229.805ZM229.238 10.8366V26.3537C229.238 26.6602 229.284 26.9262 229.371 27.1344C229.446 27.3079 229.585 27.3947 229.805 27.3947C230.152 27.3947 230.238 27.2501 230.279 27.146C230.354 26.932 230.389 26.666 230.389 26.3537V9.58157C230.389 9.35602 230.331 9.17094 230.209 9.02057C230.094 8.88177 229.961 8.81237 229.787 8.81237C229.469 8.81237 229.163 9.03792 228.873 9.47747L218.249 25.4514L207.625 9.47747C207.33 9.03792 207.018 8.81237 206.711 8.81237C206.543 8.81237 206.405 8.88177 206.289 9.02057C206.168 9.17094 206.11 9.35602 206.11 9.58157V26.3537C206.11 26.666 206.144 26.932 206.22 27.146C206.254 27.2559 206.347 27.3947 206.694 27.3947C206.919 27.3947 207.052 27.3137 207.128 27.1344C207.214 26.9204 207.261 26.6602 207.261 26.3537V10.8366L217.538 26.0009C217.96 26.6544 218.457 26.7122 218.961 26.0009L229.238 10.8366Z" fill="white"/>
<path d="M236.393 27.5392C236.179 27.5392 236.051 27.5045 236.011 27.4351C235.97 27.3657 235.953 27.2038 235.953 26.9435V9.46006C235.953 9.1304 235.976 8.91642 236.023 8.8181C236.069 8.71978 236.254 8.66772 236.584 8.66772H252.054C252.384 8.66772 252.673 8.68508 252.928 8.71978C253.182 8.75448 253.309 8.93377 253.309 9.26342C253.309 9.54681 253.182 9.70297 252.928 9.73767C252.673 9.77237 252.384 9.78972 252.054 9.78972H237.399V17.2099H251.973C252.222 17.2099 252.43 17.2446 252.598 17.314C252.766 17.3834 252.852 17.528 252.852 17.7536C252.852 18.0023 252.783 18.1642 252.638 18.2452C252.494 18.3261 252.315 18.3666 252.089 18.3666H237.399V26.4346H252.089C252.419 26.4346 252.708 26.4519 252.962 26.4866C253.217 26.5213 253.344 26.6775 253.344 26.9609C253.344 27.2905 253.24 27.464 253.032 27.4929C252.824 27.5219 252.552 27.5392 252.228 27.5508H236.404L236.393 27.5392Z" fill="white"/>
<path d="M236.393 27.6839C236.116 27.6839 235.959 27.6318 235.884 27.5103C235.849 27.4467 235.803 27.3253 235.803 26.9436V9.46012C235.803 8.99166 235.849 8.8355 235.884 8.76032C235.959 8.59259 236.173 8.52319 236.578 8.52319H252.049C252.384 8.52319 252.679 8.54054 252.94 8.57524C253.131 8.59838 253.449 8.72562 253.449 9.26348C253.449 9.61627 253.269 9.83604 252.94 9.88231C252.679 9.91701 252.379 9.93436 252.049 9.93436H237.538V17.0654H251.968C252.234 17.0654 252.465 17.1059 252.65 17.1753C252.807 17.2389 252.997 17.3893 252.997 17.7478C252.997 18.0544 252.899 18.2568 252.714 18.3667C252.552 18.4592 252.344 18.5055 252.095 18.5055H237.55V26.2842H252.095C252.431 26.2842 252.726 26.3016 252.986 26.3363C253.31 26.3826 253.495 26.6023 253.495 26.9551C253.495 27.4641 253.258 27.6029 253.055 27.6318C252.841 27.6607 252.57 27.6781 252.234 27.6896H236.405L236.393 27.6839ZM236.139 27.3658C236.139 27.3658 236.196 27.3947 236.393 27.3947H252.217C252.535 27.3831 252.801 27.3658 253.003 27.3368C253.055 27.3311 253.194 27.3137 253.194 26.9493C253.194 26.6891 253.073 26.637 252.94 26.6197C252.691 26.585 252.408 26.5676 252.084 26.5676H237.249V18.2105H252.084C252.286 18.2105 252.442 18.1758 252.564 18.1122C252.656 18.0601 252.703 17.9387 252.703 17.7478C252.703 17.5338 252.616 17.4702 252.541 17.4413C252.39 17.3777 252.194 17.3488 251.968 17.3488H237.249V9.6394H252.049C252.367 9.6394 252.656 9.62205 252.905 9.58735C253.038 9.57 253.159 9.51795 253.159 9.2577C253.159 8.93382 253.032 8.87599 252.905 8.85864C252.656 8.82394 252.373 8.80658 252.049 8.80658H236.578C236.208 8.80658 236.15 8.87599 236.15 8.87599C236.133 8.92225 236.098 9.05527 236.098 9.46012V26.9436C236.098 27.279 236.133 27.3542 236.139 27.36V27.3658Z" fill="white"/>
<path d="M26.5501 10.5123C26.5443 10.4371 26.5327 10.3677 26.5038 10.2983C26.498 10.281 26.4865 10.2636 26.4807 10.2463C26.4229 10.1017 26.3361 9.96865 26.1915 9.85876L13.8785 0.477964C13.5431 0.223491 13.0804 0.223491 12.7391 0.477964L0.426127 9.85876C0.275757 9.97443 0.183221 10.119 0.125386 10.2694C0.0906853 10.3677 0.0675512 10.466 0.0675512 10.5701C0.0675512 10.5817 0.0617676 10.5933 0.0617676 10.6048V26.839C0.0617676 27.3133 0.44926 27.7008 0.923505 27.7008H8.28587C8.28587 27.7008 8.28587 27.6834 8.28587 27.6777V17.6607C8.28587 17.3946 8.33792 17.1633 8.43624 16.9724C8.55191 16.7469 8.78903 16.6312 9.14182 16.6312C9.49462 16.6312 9.66812 16.8221 9.73174 16.9782C9.80692 17.1633 9.84741 17.3946 9.84741 17.6607V18.6323C10.1019 18.1291 10.4431 17.7301 10.8827 17.4293C11.5188 16.9898 12.2186 16.6948 12.9647 16.5445C13.6992 16.3999 14.3527 16.3247 14.9022 16.3247C15.7234 16.3247 16.3133 16.3652 16.7066 16.4519C17.0941 16.5387 17.4238 16.6196 17.7187 16.7064C18.0021 16.7874 18.1583 17.0071 18.1583 17.3252C18.1583 17.493 18.1004 17.6549 17.9905 17.7937C17.8691 17.9498 17.6956 18.025 17.47 18.025C17.4064 18.025 17.3659 18.025 17.3312 18.0077C17.3254 18.0077 17.2907 17.9961 17.2503 17.9903C16.8396 17.8747 16.4521 17.7879 16.082 17.7243C15.7176 17.6607 15.3186 17.6318 14.9022 17.6318C13.6992 17.6318 12.6235 17.8689 11.6923 18.3431C11.3338 18.5224 11.0215 18.748 10.7554 19.0082C10.1482 19.6039 9.84163 20.4483 9.84163 21.3043V27.6834C9.84163 27.6834 9.84163 27.7008 9.84163 27.7066H25.7115C26.1857 27.7066 26.5732 27.3191 26.5732 26.8448V10.6106C26.5732 10.5759 26.5559 10.547 26.5559 10.5123H26.5501Z" fill="white"/>
</g>
<defs>
<clipPath id="clip0_2_129">
<rect width="254.074" height="28" fill="white"/>
</clipPath>
</defs>
</svg>
