<svg width="28" height="28" viewBox="0 0 28 28" fill="none" xmlns="http://www.w3.org/2000/svg">
<path d="M11.2 18.2L18.466 14L11.2 9.79995V18.2ZM27.384 7.23795C27.566 7.89595 27.692 8.77795 27.776 9.89795C27.874 11.018 27.916 11.984 27.916 12.824L28 14C28 17.066 27.776 19.32 27.384 20.762C27.034 22.0219 26.222 22.834 24.962 23.184C24.304 23.3659 23.1 23.492 21.252 23.576C19.432 23.674 17.766 23.716 16.226 23.716L14 23.8C8.134 23.8 4.48 23.576 3.038 23.184C1.778 22.834 0.966 22.0219 0.616 20.762C0.434 20.104 0.308 19.222 0.224 18.102C0.126 16.982 0.0839999 16.016 0.0839999 15.176L0 14C0 10.934 0.224 8.67995 0.616 7.23795C0.966 5.97795 1.778 5.16595 3.038 4.81595C3.696 4.63395 4.9 4.50795 6.748 4.42395C8.568 4.32595 10.234 4.28395 11.774 4.28395L14 4.19995C19.866 4.19995 23.52 4.42395 24.962 4.81595C26.222 5.16595 27.034 5.97795 27.384 7.23795Z" fill="white"/>
</svg>
