<svg width="28" height="28" viewBox="0 0 28 28" fill="none" xmlns="http://www.w3.org/2000/svg">
<path fill-rule="evenodd" clip-rule="evenodd" d="M6.78027 1.57397C5.39937 1.57397 4.07499 2.1224 3.09836 3.09866C2.12173 4.07491 1.5728 5.39907 1.57227 6.77998V20.668C1.57227 22.0492 2.12096 23.3739 3.09765 24.3506C4.07434 25.3273 5.39902 25.876 6.78027 25.876H20.6683C22.0492 25.8754 23.3733 25.3265 24.3496 24.3499C25.3258 23.3733 25.8743 22.0489 25.8743 20.668V6.77998C25.8737 5.39942 25.3251 4.07556 24.3489 3.09936C23.3727 2.12316 22.0488 1.5745 20.6683 1.57397H6.78027ZM22.1663 6.78798C22.1663 7.1858 22.0082 7.56733 21.7269 7.84864C21.4456 8.12994 21.0641 8.28798 20.6663 8.28798C20.2684 8.28798 19.8869 8.12994 19.6056 7.84864C19.3243 7.56733 19.1663 7.1858 19.1663 6.78798C19.1663 6.39015 19.3243 6.00862 19.6056 5.72731C19.8869 5.44601 20.2684 5.28798 20.6663 5.28798C21.0641 5.28798 21.4456 5.44601 21.7269 5.72731C22.0082 6.00862 22.1663 6.39015 22.1663 6.78798ZM13.7263 9.56398C12.623 9.56398 11.5649 10.0023 10.7847 10.7824C10.0046 11.5626 9.56627 12.6207 9.56627 13.724C9.56627 14.8273 10.0046 15.8854 10.7847 16.6655C11.5649 17.4457 12.623 17.884 13.7263 17.884C14.8296 17.884 15.8877 17.4457 16.6678 16.6655C17.448 15.8854 17.8863 14.8273 17.8863 13.724C17.8863 12.6207 17.448 11.5626 16.6678 10.7824C15.8877 10.0023 14.8296 9.56398 13.7263 9.56398ZM7.56427 13.724C7.56427 12.0902 8.21326 10.5234 9.36849 9.3682C10.5237 8.21297 12.0905 7.56398 13.7243 7.56398C15.358 7.56398 16.9248 8.21297 18.08 9.3682C19.2353 10.5234 19.8843 12.0902 19.8843 13.724C19.8843 15.3577 19.2353 16.9245 18.08 18.0798C16.9248 19.235 15.358 19.884 13.7243 19.884C12.0905 19.884 10.5237 19.235 9.36849 18.0798C8.21326 16.9245 7.56427 15.3577 7.56427 13.724Z" fill="white"/>
</svg>
