<svg width="255" height="28" viewBox="0 0 255 28" fill="none" xmlns="http://www.w3.org/2000/svg">
<g clip-path="url(#clip0_2_160)">
<path d="M37.6083 27.5393C37.2786 27.5393 37.0646 27.4121 36.9663 27.1576C36.868 26.9031 36.8159 26.6024 36.8159 26.2496V9.28665C36.8159 8.95699 36.8391 8.77192 36.8853 8.72565C36.9316 8.67939 37.1167 8.65625 37.4463 8.65625H42.3623C43.9412 8.65625 45.4044 8.69674 46.7404 8.78349C48.0763 8.87024 49.2504 9.09001 50.2567 9.4428C51.263 9.80138 52.0438 10.3739 52.5932 11.1721C53.1485 11.9702 53.4261 13.0864 53.4261 14.5207C53.4261 15.5502 53.2121 16.4003 52.7841 17.0712C52.3561 17.7421 51.7893 18.2742 51.0838 18.6559C50.3782 19.0376 49.6032 19.321 48.7646 19.4945C47.9202 19.668 47.0874 19.7721 46.2661 19.8068L52.5007 26.3653C52.6916 26.5561 52.7899 26.7585 52.7899 26.9725C52.7899 27.3427 52.599 27.5335 52.2115 27.5335C52.0959 27.5335 51.9686 27.5046 51.824 27.441C51.6795 27.3774 51.5349 27.2733 51.4018 27.1287L44.6063 19.8762H38.2676V26.2496C38.2676 26.5792 38.2271 26.8742 38.1461 27.1402C38.0652 27.4063 37.8916 27.5393 37.6198 27.5393H37.6083ZM38.2502 18.76H44.6063C45.9191 18.76 47.1336 18.6674 48.2499 18.4824C49.3661 18.2973 50.2683 17.8982 50.9507 17.2968C51.6332 16.6953 51.9744 15.7699 51.9744 14.5265C51.9744 13.0228 51.6101 11.9413 50.8756 11.2819C50.1411 10.6226 49.0595 10.2062 47.631 10.0385C46.2025 9.87078 44.4443 9.78403 42.3507 9.78403H38.2502V18.7658V18.76Z" fill="#55504A"/>
<path d="M52.2004 27.6836C52.0674 27.6836 51.917 27.6489 51.7551 27.5795C51.5874 27.5101 51.4312 27.3944 51.2809 27.2325L44.5315 20.0263H38.4011V26.2551C38.4011 26.5963 38.3606 26.9086 38.2738 27.1862C38.1755 27.5159 37.9442 27.6894 37.6087 27.6894C37.1229 27.6894 36.9147 27.4349 36.828 27.2151C36.7181 26.9433 36.666 26.6194 36.666 26.2551V9.29215C36.666 8.83526 36.7065 8.69645 36.7759 8.63284C36.8453 8.56922 36.9783 8.52295 37.4352 8.52295H42.3512C43.9301 8.52295 45.4048 8.56343 46.7408 8.65019C48.0884 8.73694 49.2798 8.96249 50.2977 9.32107C51.3271 9.68543 52.1368 10.2869 52.7036 11.1024C53.2704 11.9179 53.5595 13.0745 53.5595 14.532C53.5595 15.5846 53.334 16.4694 52.8944 17.1577C52.4549 17.8459 51.865 18.3953 51.1363 18.7886C50.4191 19.1761 49.6268 19.4653 48.7766 19.6446C48.0363 19.8007 47.296 19.899 46.5673 19.9453L52.5879 26.2724C52.8019 26.4864 52.9176 26.7293 52.9176 26.9838C52.9176 27.4349 52.6631 27.6894 52.1946 27.6894L52.2004 27.6836ZM38.1119 19.7371H44.6588L51.4948 27.0359C51.6163 27.1689 51.7435 27.2614 51.8708 27.3135C51.998 27.3655 52.1137 27.3944 52.2062 27.3944C52.507 27.3944 52.64 27.273 52.64 26.978C52.64 26.8045 52.559 26.6368 52.3971 26.4691L45.9369 19.6793L46.255 19.6677C47.0705 19.633 47.9033 19.5289 48.7303 19.3554C49.5516 19.1819 50.3208 18.9043 51.009 18.5341C51.6915 18.164 52.2467 17.6493 52.6573 17.0015C53.0679 16.3538 53.2762 15.5267 53.2762 14.532C53.2762 13.1324 53.0043 12.0393 52.4723 11.2701C51.9402 10.5009 51.1768 9.9399 50.2051 9.59289C49.2162 9.24589 48.0479 9.02611 46.7293 8.93936C45.3991 8.85261 43.9301 8.81212 42.357 8.81212H37.441C37.146 8.81212 37.0304 8.82948 36.9899 8.84104C36.9783 8.88153 36.961 8.9972 36.961 9.29215V26.2551C36.961 26.5847 37.0072 26.8739 37.1056 27.1053C37.1576 27.2325 37.2617 27.3944 37.6145 27.3944C37.8227 27.3944 37.9384 27.3019 38.002 27.0995C38.0772 26.845 38.1119 26.5616 38.1119 26.2493V19.7313V19.7371ZM44.6125 18.9101H38.1119V9.63916H42.357C44.4448 9.63916 46.2261 9.72591 47.6546 9.89363C49.1063 10.0671 50.2225 10.4951 50.9801 11.1776C51.7435 11.8658 52.131 12.9936 52.131 14.532C52.131 15.8101 51.7725 16.7818 51.0553 17.4122C50.3555 18.031 49.4186 18.4416 48.2792 18.6325C47.1572 18.8175 45.9254 18.9159 44.6125 18.9159V18.9101ZM38.4011 18.6209H44.6125C45.908 18.6209 47.1283 18.5284 48.233 18.3433C49.3203 18.164 50.2051 17.7765 50.8644 17.1924C51.5122 16.6198 51.8419 15.7234 51.8419 14.532C51.8419 13.0803 51.4891 12.022 50.7893 11.3973C50.0837 10.7612 49.0137 10.3505 47.6257 10.1886C46.2087 10.0209 44.439 9.93412 42.3627 9.93412H38.4068V18.6267L38.4011 18.6209Z" fill="#55504A"/>
<path d="M56.9259 27.7066C56.5963 27.7066 56.417 27.5562 56.3823 27.2555C56.3476 26.9548 56.4112 26.6656 56.5673 26.3822L65.9019 9.52336C66.0812 9.1937 66.2257 8.96815 66.3241 8.84669C66.4282 8.72524 66.5785 8.66162 66.781 8.66162C66.9371 8.66162 67.0817 8.71946 67.2032 8.84091C67.3246 8.96236 67.4808 9.18792 67.66 9.52914L77.0119 26.4053C77.1334 26.6193 77.197 26.8391 77.197 27.0646C77.197 27.4926 77.0061 27.7066 76.6187 27.7066C76.4741 27.7066 76.3179 27.6546 76.1618 27.5447C76.0056 27.4348 75.8437 27.2439 75.6875 26.9605L72.8073 21.7438H60.743L57.8281 27.0299C57.591 27.4811 57.2845 27.7066 56.9143 27.7066H56.9259ZM61.2462 20.7433H72.3273L66.7867 10.628L61.2462 20.7433Z" fill="#55504A"/>
<path d="M76.6299 27.8517C76.4564 27.8517 76.2714 27.788 76.0921 27.6666C75.9128 27.5451 75.7451 27.3369 75.5716 27.0304L72.7319 21.8831H60.841L57.9667 27.094C57.7064 27.5914 57.3536 27.8459 56.9256 27.8459C56.5266 27.8459 56.2837 27.6435 56.2374 27.2675C56.2027 26.9379 56.2663 26.614 56.4398 26.3075L65.7743 9.44864C65.9594 9.11899 66.104 8.88186 66.2139 8.74884C66.3469 8.59269 66.5378 8.51172 66.7807 8.51172C66.9773 8.51172 67.1508 8.5869 67.3012 8.73149C67.44 8.86451 67.5961 9.09585 67.787 9.45443L77.1389 26.3306C77.2719 26.5619 77.3413 26.8106 77.3413 27.0593C77.3413 27.5683 77.0868 27.8459 76.6184 27.8459L76.6299 27.8517ZM60.6675 21.5997H72.8996L75.8202 26.8916C75.9648 27.1519 76.1094 27.3312 76.2482 27.4237C76.3812 27.5162 76.5085 27.5625 76.6241 27.5625C76.8381 27.5625 77.0579 27.5047 77.0579 27.0651C77.0579 26.8685 77.0001 26.6661 76.8902 26.4752L67.5383 9.59901C67.3648 9.27514 67.2202 9.05537 67.1045 8.94548C67.0062 8.85294 66.9021 8.80668 66.7807 8.80668C66.6245 8.80668 66.5089 8.85294 66.4337 8.9397C66.3353 9.06115 66.1965 9.28092 66.023 9.59323L56.6885 26.4521C56.5439 26.7123 56.4861 26.9668 56.5208 27.2386C56.5439 27.4642 56.6654 27.5567 56.9198 27.5567C57.2379 27.5567 57.4924 27.3601 57.7064 26.9552L60.6617 21.5939L60.6675 21.5997ZM72.5699 20.8884H61.003L66.7865 10.3277L72.5699 20.8884ZM61.4888 20.5992H72.0841L66.7865 10.9292L61.4888 20.5992Z" fill="#55504A"/>
<path d="M80.8815 27.5398C80.6096 27.5398 80.3378 27.5224 80.0602 27.4877C79.7826 27.453 79.6438 27.2737 79.6438 26.9441C79.6438 26.6607 79.7768 26.5045 80.0429 26.4698C80.3089 26.4351 80.5865 26.4178 80.8815 26.4178H86.931V9.77873H80.8815C80.5865 9.77873 80.3089 9.76138 80.0429 9.72668C79.7768 9.69198 79.6438 9.53583 79.6438 9.25244C79.6438 8.92278 79.7826 8.74349 80.0602 8.70879C80.3378 8.67409 80.6096 8.65674 80.8815 8.65674H94.4206C94.7502 8.65674 95.0336 8.67409 95.2765 8.70879C95.5194 8.74349 95.6409 8.91121 95.6409 9.21774C95.6409 9.52426 95.5194 9.69198 95.2765 9.72668C95.0336 9.76138 94.7502 9.77873 94.4206 9.77873H88.3711V26.4178H94.4206C94.7502 26.4178 95.0336 26.4351 95.2765 26.4698C95.5194 26.5045 95.6409 26.6723 95.6409 26.9788C95.6409 27.2853 95.5194 27.453 95.2765 27.4877C95.0336 27.5224 94.7502 27.5398 94.4206 27.5398H80.8815Z" fill="#55504A"/>
<path d="M94.4204 27.6839H80.8813C80.6037 27.6839 80.3261 27.6666 80.0427 27.6319C79.8402 27.6088 79.499 27.4873 79.499 26.9437C79.499 26.5909 79.6841 26.3711 80.0253 26.3248C80.2971 26.2901 80.5863 26.2728 80.8813 26.2728H86.7862V9.92289H80.8813C80.5805 9.92289 80.2914 9.90554 80.0253 9.87084C79.6899 9.83035 79.499 9.61058 79.499 9.25201C79.499 8.71414 79.8402 8.59269 80.0427 8.56377C80.3261 8.52907 80.6037 8.51172 80.8813 8.51172H94.4204C94.7501 8.51172 95.045 8.52907 95.2937 8.56377C95.4788 8.5869 95.7853 8.70836 95.7853 9.2173C95.7853 9.72625 95.4788 9.84192 95.2937 9.87084C95.045 9.90554 94.7501 9.92289 94.4204 9.92289H88.5155V26.2728H94.4204C94.7501 26.2728 95.045 26.2901 95.2937 26.3248C95.4788 26.348 95.7853 26.4694 95.7853 26.9784C95.7853 27.4873 95.4788 27.603 95.2937 27.6319C95.045 27.6666 94.7501 27.6839 94.4204 27.6839ZM80.8813 26.5677C80.5921 26.5677 80.3203 26.5851 80.06 26.6198C79.8692 26.6429 79.7882 26.7412 79.7882 26.9494C79.7882 27.2675 79.9328 27.3312 80.0774 27.3485C80.3492 27.3832 80.6152 27.4006 80.8813 27.4006H94.4204C94.7385 27.4006 95.0219 27.3832 95.2532 27.3485C95.3747 27.3312 95.4903 27.2733 95.4903 26.9841C95.4903 26.695 95.3689 26.6371 95.2532 26.6198C95.0161 26.5851 94.7385 26.5677 94.4204 26.5677H88.2263V9.6395H94.4204C94.7385 9.6395 95.0219 9.62215 95.2532 9.58745C95.3747 9.5701 95.4903 9.51226 95.4903 9.22309C95.4903 8.93391 95.3689 8.87608 95.2532 8.85873C95.0161 8.82403 94.7385 8.80668 94.4204 8.80668H80.8813C80.6152 8.80668 80.3492 8.82403 80.0774 8.85873C79.9328 8.87608 79.7882 8.9397 79.7882 9.25779C79.7882 9.46599 79.8692 9.56431 80.06 9.58745C80.3203 9.62215 80.5921 9.6395 80.8813 9.6395H87.0754V26.5677H80.8813Z" fill="#55504A"/>
<path d="M111.129 27.8749C109.527 27.8749 107.942 27.7708 106.375 27.5684C104.807 27.366 103.425 27.1173 102.222 26.8223C101.019 26.5274 100.146 26.2555 99.6024 26.0069C99.2958 25.8623 99.1455 25.6425 99.1455 25.3475C99.1455 25.0179 99.29 24.8559 99.585 24.8559C99.666 24.8559 99.7412 24.8733 99.8221 24.908C100.412 25.1451 101.32 25.4054 102.552 25.6945C103.784 25.9837 105.178 26.2324 106.728 26.4406C108.283 26.6488 109.833 26.7529 111.378 26.7529C112.922 26.7529 114.269 26.6141 115.553 26.3365C116.837 26.0589 117.867 25.5962 118.647 24.9369C119.428 24.2776 119.816 23.3869 119.816 22.2592C119.816 21.3685 119.521 20.6687 118.937 20.1655C118.347 19.6624 117.56 19.2865 116.565 19.0378C115.571 18.7891 114.454 18.6156 113.217 18.5115C111.979 18.4074 110.701 18.3322 109.376 18.2801C108.052 18.2281 106.774 18.1413 105.536 18.0199C104.299 17.8984 103.182 17.6844 102.188 17.3953C101.193 17.1003 100.4 16.6608 99.8163 16.0708C99.2264 15.4809 98.9373 14.7002 98.9373 13.717C98.9373 12.6297 99.2264 11.739 99.8106 11.0334C100.395 10.3279 101.175 9.77264 102.159 9.37358C103.142 8.97452 104.241 8.69113 105.461 8.53497C106.681 8.37882 107.931 8.29785 109.203 8.29785C110.603 8.29785 111.967 8.37882 113.286 8.54076C114.61 8.7027 115.796 8.91668 116.843 9.17694C117.895 9.4372 118.705 9.70324 119.284 9.97506C119.463 10.056 119.555 10.2064 119.555 10.432C119.555 10.5881 119.503 10.7385 119.393 10.8715C119.284 11.0045 119.139 11.0739 118.942 11.0739C118.827 11.0739 118.734 11.0508 118.653 11.0045C117.468 10.5071 116.033 10.1196 114.35 9.83626C112.667 9.55287 110.973 9.41406 109.267 9.41406C107.705 9.41406 106.253 9.5413 104.894 9.7842C103.541 10.0329 102.448 10.4609 101.615 11.0739C100.782 11.687 100.372 12.5314 100.372 13.6129C100.372 14.3936 100.667 14.9951 101.251 15.4289C101.841 15.8569 102.627 16.1749 103.622 16.3889C104.617 16.5971 105.733 16.7475 106.971 16.8285C108.208 16.9094 109.486 16.9904 110.811 17.0656C112.135 17.1408 113.413 17.2565 114.651 17.4126C115.889 17.5688 117.005 17.8232 118 18.176C118.994 18.5288 119.787 19.0262 120.371 19.6855C120.961 20.339 121.25 21.2008 121.25 22.2592C121.25 23.3175 120.972 24.2487 120.411 24.9716C119.85 25.6945 119.093 26.2671 118.133 26.6893C117.173 27.1115 116.085 27.4122 114.882 27.5973C113.674 27.7766 112.419 27.8691 111.123 27.8691L111.129 27.8749Z" fill="#55504A"/>
<path d="M111.129 28.0196C109.527 28.0196 107.919 27.9155 106.358 27.7131C104.796 27.5106 103.397 27.2562 102.194 26.967C100.985 26.672 100.1 26.3944 99.5508 26.1457C99.198 25.9722 99.0071 25.7004 99.0071 25.3534C99.0071 24.9428 99.2153 24.7172 99.5912 24.7172C99.6896 24.7172 99.7879 24.7403 99.8862 24.7808C100.459 25.0122 101.373 25.2782 102.593 25.5616C103.813 25.845 105.213 26.0995 106.757 26.3019C108.295 26.5101 109.857 26.6142 111.39 26.6142C112.922 26.6142 114.27 26.4754 115.536 26.2036C116.791 25.9317 117.809 25.4748 118.567 24.8387C119.307 24.2141 119.683 23.3523 119.683 22.2708C119.683 21.4264 119.405 20.7613 118.85 20.2871C118.283 19.8013 117.503 19.4311 116.537 19.1882C115.554 18.9453 114.437 18.766 113.211 18.6677C111.985 18.5694 110.696 18.4884 109.383 18.4421C108.064 18.3901 106.769 18.3033 105.537 18.1761C104.293 18.0489 103.16 17.8407 102.165 17.5457C101.153 17.245 100.332 16.7881 99.73 16.1866C99.1286 15.5851 98.8047 14.7465 98.8047 13.7286C98.8047 12.6124 99.1112 11.6813 99.7127 10.9525C100.308 10.2296 101.118 9.65704 102.119 9.2522C103.108 8.84736 104.23 8.56397 105.456 8.40203C108.012 8.07237 110.788 8.09551 113.321 8.40781C114.64 8.56975 115.843 8.78374 116.895 9.044C117.954 9.30425 118.781 9.57607 119.365 9.8479C119.527 9.9173 119.718 10.0792 119.718 10.4378C119.718 10.6287 119.654 10.808 119.527 10.9699C119.394 11.1434 119.203 11.2301 118.966 11.2301C118.827 11.2301 118.706 11.2012 118.607 11.1434C117.451 10.6634 116.016 10.2701 114.351 9.99249C112.679 9.71488 110.979 9.57029 109.29 9.57029C107.746 9.57029 106.289 9.69753 104.947 9.94043C103.622 10.1833 102.535 10.6055 101.725 11.2012C100.927 11.7854 100.54 12.5835 100.54 13.6245C100.54 14.3648 100.806 14.9142 101.361 15.3191C101.928 15.7355 102.709 16.0478 103.68 16.2502C104.663 16.4584 105.78 16.603 107.006 16.6898C108.238 16.7765 109.527 16.8517 110.84 16.9269C112.159 17.0021 113.454 17.1177 114.686 17.2739C115.93 17.43 117.063 17.6903 118.064 18.0431C119.076 18.4017 119.897 18.9222 120.493 19.5931C121.1 20.2755 121.412 21.1719 121.412 22.265C121.412 23.3581 121.117 24.3182 120.545 25.0642C119.972 25.8045 119.186 26.3944 118.208 26.8282C117.242 27.2562 116.132 27.5627 114.917 27.7478C113.703 27.927 112.431 28.0196 111.135 28.0196H111.129ZM99.5912 25.0064C99.412 25.0064 99.2963 25.0642 99.2963 25.3534C99.2963 25.5905 99.4177 25.7582 99.6722 25.8855C100.199 26.1284 101.072 26.4002 102.263 26.6894C103.455 26.9786 104.848 27.233 106.398 27.4297C109.198 27.794 112.182 27.8634 114.871 27.4644C116.063 27.2851 117.144 26.9843 118.087 26.5679C119.018 26.1573 119.77 25.5905 120.308 24.8907C120.846 24.1967 121.117 23.3176 121.117 22.2708C121.117 21.224 120.834 20.4143 120.273 19.7897C119.706 19.1535 118.925 18.6619 117.96 18.3207C116.982 17.9737 115.866 17.7192 114.646 17.5631C113.42 17.4069 112.13 17.2912 110.817 17.216C109.498 17.1409 108.209 17.0657 106.977 16.9789C105.739 16.8922 104.606 16.7476 103.611 16.5336C102.599 16.3196 101.783 15.9899 101.182 15.5504C100.557 15.0935 100.239 14.4458 100.239 13.6187C100.239 12.4909 100.679 11.5945 101.546 10.9583C102.39 10.3395 103.512 9.89417 104.883 9.64548C106.242 9.39679 107.723 9.26955 109.279 9.26955C110.985 9.26955 112.702 9.41414 114.385 9.69753C116.074 9.98092 117.532 10.3742 118.723 10.8774C118.792 10.9178 118.868 10.9352 118.954 10.9352C119.105 10.9352 119.209 10.8889 119.29 10.7848C119.377 10.6749 119.417 10.5593 119.417 10.432C119.417 10.218 119.319 10.1429 119.232 10.1082C118.665 9.84212 117.855 9.57607 116.814 9.3216C115.773 9.06713 114.582 8.85314 113.275 8.6912C110.765 8.3789 108.018 8.35576 105.485 8.68542C104.282 8.84157 103.183 9.11918 102.217 9.51246C101.263 9.89995 100.493 10.4494 99.9267 11.1318C99.3715 11.8085 99.0881 12.6818 99.0881 13.7228C99.0881 14.6598 99.3715 15.4174 99.9267 15.9784C100.493 16.5452 101.268 16.9789 102.24 17.2623C103.223 17.5515 104.339 17.7597 105.56 17.8869C106.786 18.0084 108.076 18.1009 109.388 18.1472C110.707 18.1992 111.997 18.2744 113.234 18.3785C114.472 18.4826 115.606 18.6561 116.606 18.9106C117.618 19.1651 118.434 19.5526 119.035 20.0673C119.654 20.5994 119.966 21.3397 119.966 22.2708C119.966 23.4391 119.556 24.376 118.746 25.0584C117.954 25.7235 116.89 26.2036 115.594 26.487C114.31 26.7646 112.893 26.9034 111.39 26.9034C109.886 26.9034 108.272 26.7993 106.716 26.5911C105.167 26.3829 103.755 26.1284 102.523 25.845C101.292 25.5558 100.366 25.2898 99.7763 25.0527C99.7127 25.0237 99.6549 25.0122 99.5912 25.0122V25.0064Z" fill="#55504A"/>
<path d="M125.651 27.539C125.437 27.539 125.31 27.5043 125.269 27.4349C125.229 27.3655 125.211 27.2035 125.211 26.9433V9.45982C125.211 9.13016 125.234 8.91617 125.281 8.81785C125.327 8.71953 125.512 8.66748 125.842 8.66748H141.312C141.642 8.66748 141.931 8.68483 142.186 8.71953C142.44 8.75423 142.567 8.93352 142.567 9.26318C142.567 9.54657 142.44 9.70272 142.186 9.73742C141.931 9.77213 141.642 9.78948 141.312 9.78948H126.657V17.2097H141.231C141.48 17.2097 141.688 17.2444 141.856 17.3138C142.024 17.3832 142.111 17.5278 142.111 17.7533C142.111 18.002 142.041 18.1639 141.897 18.2449C141.752 18.3259 141.573 18.3664 141.347 18.3664H126.657V26.4343H141.347C141.677 26.4343 141.966 26.4517 142.22 26.4864C142.475 26.5211 142.602 26.6772 142.602 26.9606C142.602 27.2903 142.498 27.4638 142.29 27.4927C142.082 27.5216 141.81 27.539 141.486 27.5505H125.662L125.651 27.539Z" fill="#55504A"/>
<path d="M125.651 27.6836C125.373 27.6836 125.217 27.6316 125.147 27.5101C125.113 27.4465 125.066 27.325 125.066 26.9433V9.45987C125.066 8.99141 125.113 8.83526 125.147 8.76007C125.223 8.59235 125.437 8.52295 125.841 8.52295H141.312C141.648 8.52295 141.943 8.5403 142.203 8.575C142.394 8.59813 142.712 8.72537 142.712 9.26324C142.712 9.61603 142.533 9.8358 142.203 9.88207C141.943 9.91677 141.642 9.93412 141.312 9.93412H126.801V17.0651H141.231C141.497 17.0651 141.729 17.1056 141.914 17.175C142.07 17.2386 142.261 17.389 142.261 17.7476C142.261 18.0541 142.162 18.2565 141.977 18.3664C141.815 18.459 141.607 18.5052 141.353 18.5052H126.807V26.284H141.353C141.688 26.284 141.983 26.3014 142.243 26.3361C142.567 26.3823 142.752 26.6021 142.752 26.9549C142.752 27.4638 142.515 27.6026 142.313 27.6316C142.099 27.6605 141.827 27.6778 141.491 27.6894H125.662L125.651 27.6836ZM125.396 27.3655C125.396 27.3655 125.454 27.3944 125.651 27.3944H141.474C141.792 27.3829 142.058 27.3655 142.261 27.3366C142.313 27.3308 142.446 27.3135 142.446 26.9491C142.446 26.6888 142.324 26.6368 142.191 26.6194C141.943 26.5847 141.659 26.5674 141.335 26.5674H126.501V18.2103H141.335C141.538 18.2103 141.7 18.1756 141.815 18.112C141.908 18.0599 141.954 17.9384 141.954 17.7476C141.954 17.5336 141.867 17.47 141.792 17.4411C141.642 17.3775 141.445 17.3485 141.22 17.3485H126.501V9.63916H141.301C141.619 9.63916 141.908 9.62181 142.157 9.58711C142.29 9.56976 142.411 9.51771 142.411 9.25745C142.411 8.93358 142.284 8.87574 142.157 8.85839C141.908 8.82369 141.624 8.80634 141.301 8.80634H125.83C125.46 8.80634 125.402 8.87574 125.402 8.87574C125.384 8.92201 125.35 9.05503 125.35 9.45987V26.9433C125.35 27.2788 125.385 27.3539 125.39 27.3597L125.396 27.3655Z" fill="#55504A"/>
<path d="M155.811 27.5389C155.458 27.5389 155.245 27.4174 155.158 27.1687C155.071 26.9201 155.031 26.6482 155.031 26.3533V9.84723C155.031 9.55228 155.077 9.28045 155.175 9.03176C155.273 8.78307 155.493 8.66162 155.846 8.66162C156.095 8.66162 156.262 8.78886 156.343 9.04333C156.424 9.2978 156.471 9.56384 156.471 9.84723V17.2674H171.467V9.84723C171.467 9.55228 171.502 9.28045 171.577 9.03176C171.652 8.78307 171.849 8.66162 172.179 8.66162C172.508 8.66162 172.722 8.78886 172.797 9.03176C172.873 9.28045 172.907 9.55228 172.907 9.84723V26.3533C172.907 26.6482 172.873 26.9201 172.797 27.1687C172.722 27.4174 172.526 27.5389 172.196 27.5389C171.866 27.5389 171.652 27.4174 171.577 27.1687C171.502 26.9201 171.467 26.6482 171.467 26.3533V18.32H156.471V26.3533C156.471 26.6367 156.424 26.9027 156.326 27.1572C156.228 27.4117 156.06 27.5389 155.811 27.5389Z" fill="#55504A"/>
<path d="M172.196 27.6835C171.687 27.6835 171.502 27.4233 171.438 27.2093C171.363 26.949 171.322 26.6599 171.322 26.3533V18.4647H156.615V26.3533C156.615 26.6541 156.563 26.9375 156.459 27.2093C156.343 27.5216 156.118 27.6835 155.805 27.6835C155.285 27.6835 155.088 27.4291 155.019 27.2151C154.926 26.9548 154.886 26.6656 154.886 26.3533V9.84729C154.886 9.53498 154.938 9.24581 155.042 8.97977C155.123 8.76578 155.331 8.51709 155.846 8.51709C156.158 8.51709 156.378 8.68481 156.482 8.99712C156.569 9.26316 156.615 9.55233 156.615 9.84729V17.1229H171.322V9.84729C171.322 9.54076 171.363 9.25159 171.438 8.99133C171.502 8.77156 171.681 8.51709 172.178 8.51709C172.676 8.51709 172.872 8.77735 172.936 8.99133C173.011 9.25159 173.052 9.54076 173.052 9.84729V26.3533C173.052 26.6599 173.011 26.949 172.936 27.2093C172.872 27.4291 172.693 27.6835 172.196 27.6835ZM156.326 18.1755H171.612V26.3533C171.612 26.6309 171.646 26.8912 171.716 27.1225C171.75 27.2382 171.837 27.3944 172.196 27.3944C172.554 27.3944 172.624 27.2382 172.658 27.1225C172.728 26.8912 172.762 26.6309 172.762 26.3533V9.84729C172.762 9.56968 172.728 9.30943 172.658 9.0723C172.624 8.95663 172.537 8.80048 172.178 8.80048C171.82 8.80048 171.75 8.95663 171.716 9.0723C171.646 9.30364 171.612 9.5639 171.612 9.84729V17.4121H156.326V9.84729C156.326 9.58125 156.285 9.32678 156.204 9.08965C156.141 8.89301 156.025 8.80626 155.84 8.80626C155.458 8.80626 155.354 8.9682 155.308 9.08387C155.221 9.31521 155.175 9.56968 155.175 9.84729V26.3533C155.175 26.6309 155.215 26.8854 155.296 27.1225C155.337 27.2382 155.435 27.4001 155.811 27.4001C156.002 27.4001 156.118 27.3134 156.193 27.111C156.28 26.8738 156.326 26.6194 156.326 26.3591V18.1813V18.1755Z" fill="#55504A"/>
<path d="M189.427 27.8919C185.135 27.8919 181.989 27.0822 179.988 25.4687C177.987 23.8551 176.986 21.3971 176.986 18.1005C176.986 14.8039 177.987 12.3459 179.988 10.7324C181.989 9.11877 185.135 8.30908 189.427 8.30908C193.718 8.30908 196.87 9.11877 198.871 10.7324C200.878 12.3459 201.878 14.8039 201.878 18.1005C201.878 21.3971 200.878 23.8551 198.871 25.4687C196.864 27.0822 193.718 27.8919 189.427 27.8919ZM189.427 26.7757C193.134 26.7757 195.893 26.1164 197.714 24.8036C199.536 23.4907 200.444 21.2525 200.444 18.1005C200.444 14.9485 199.536 12.7161 197.714 11.3975C195.898 10.0846 193.134 9.42529 189.427 9.42529C185.719 9.42529 182.961 10.0846 181.15 11.3975C179.34 12.7161 178.432 14.9485 178.432 18.1005C178.432 21.2525 179.34 23.4849 181.15 24.8036C182.961 26.1222 185.725 26.7757 189.427 26.7757Z" fill="#55504A"/>
<path d="M189.426 28.0364C185.118 28.0364 181.914 27.2094 179.895 25.5784C177.871 23.9417 176.842 21.4259 176.842 18.0946C176.842 14.7633 177.871 12.2475 179.895 10.6108C181.914 8.97987 185.118 8.15283 189.426 8.15283C193.735 8.15283 196.939 8.97987 198.963 10.605C200.993 12.2418 202.023 14.7576 202.023 18.0888C202.023 21.4201 200.993 23.9359 198.963 25.5727C196.939 27.2036 193.735 28.0306 189.426 28.0306V28.0364ZM189.426 8.44779C185.187 8.44779 182.041 9.25169 180.08 10.8364C178.125 12.4153 177.137 14.8559 177.137 18.0946C177.137 21.3334 178.125 23.774 180.08 25.3529C182.047 26.9376 185.187 27.7415 189.426 27.7415C193.666 27.7415 196.812 26.9376 198.784 25.3529C200.745 23.774 201.739 21.3334 201.739 18.0946C201.739 14.8559 200.745 12.4153 198.784 10.8364C196.818 9.25169 193.666 8.44779 189.426 8.44779ZM189.426 26.9144C185.708 26.9144 182.897 26.2435 181.063 24.9133C179.219 23.5774 178.282 21.2813 178.282 18.0946C178.282 14.9079 179.219 12.6119 181.063 11.2759C182.891 9.94571 185.708 9.27483 189.426 9.27483C193.145 9.27483 195.962 9.94571 197.795 11.2759C199.646 12.6119 200.583 14.9079 200.583 18.0946C200.583 21.2813 199.646 23.5716 197.795 24.9133C195.962 26.2435 193.145 26.9144 189.426 26.9144ZM189.426 9.564C185.771 9.564 183.013 10.2175 181.231 11.513C179.467 12.797 178.571 15.012 178.571 18.1004C178.571 21.1888 179.467 23.4039 181.231 24.682C183.013 25.9717 185.765 26.631 189.426 26.631C193.087 26.631 195.84 25.9775 197.627 24.682C199.397 23.3981 200.294 21.183 200.294 18.1004C200.294 15.0178 199.397 12.797 197.627 11.5188C195.84 10.2291 193.082 9.56978 189.426 9.56978V9.564Z" fill="#55504A"/>
<path d="M206.694 27.539C206.365 27.539 206.162 27.4233 206.087 27.192C206.012 26.9606 205.966 26.683 205.966 26.3533V9.58127C205.966 9.32101 206.035 9.10703 206.18 8.92774C206.318 8.75423 206.498 8.66748 206.712 8.66748C207.07 8.66748 207.417 8.91039 207.747 9.3962L218.25 25.1909L228.752 9.3962C229.071 8.91039 229.412 8.66748 229.788 8.66748C230.002 8.66748 230.181 8.75423 230.32 8.92774C230.459 9.10124 230.534 9.32101 230.534 9.58127V26.3533C230.534 26.683 230.493 26.9606 230.412 27.192C230.331 27.4233 230.129 27.539 229.805 27.539C229.522 27.539 229.331 27.4233 229.238 27.192C229.146 26.9606 229.094 26.683 229.094 26.3533V11.3047L219.082 26.0815C218.811 26.4632 218.533 26.6599 218.25 26.6599C217.943 26.6599 217.666 26.469 217.417 26.0815L207.406 11.3047V26.3533C207.406 26.683 207.359 26.9606 207.261 27.192C207.163 27.4233 206.978 27.539 206.694 27.539Z" fill="#55504A"/>
<path d="M229.805 27.6836C229.377 27.6836 229.186 27.4465 229.105 27.2498C229.001 27.0012 228.949 26.7004 228.949 26.3534V11.779L219.198 26.1626C218.573 27.0416 217.827 26.9838 217.295 26.1626L207.55 11.779V26.3534C207.55 26.7004 207.498 27.0012 207.394 27.2498C207.313 27.4465 207.122 27.6836 206.694 27.6836C206.202 27.6836 206.017 27.4407 205.948 27.2383C205.861 26.9954 205.821 26.6946 205.821 26.3534V9.58133C205.821 9.29215 205.902 9.03768 206.063 8.84104C206.231 8.63284 206.451 8.52295 206.711 8.52295C207.122 8.52295 207.509 8.78899 207.862 9.31529L218.249 24.9249L228.636 9.31529C228.978 8.78899 229.365 8.52295 229.793 8.52295C230.053 8.52295 230.267 8.62705 230.441 8.84104C230.603 9.04346 230.684 9.29215 230.684 9.58133V26.3534C230.684 26.6946 230.643 26.9954 230.556 27.2383C230.487 27.4407 230.302 27.6836 229.81 27.6836H229.805ZM229.238 10.8363V26.3534C229.238 26.6599 229.284 26.926 229.371 27.1342C229.446 27.3077 229.585 27.3944 229.805 27.3944C230.152 27.3944 230.238 27.2498 230.279 27.1457C230.354 26.9318 230.389 26.6657 230.389 26.3534V9.58133C230.389 9.35577 230.331 9.1707 230.209 9.02033C230.094 8.88153 229.961 8.81212 229.787 8.81212C229.469 8.81212 229.163 9.03768 228.873 9.47722L218.249 25.4512L207.625 9.47722C207.33 9.03768 207.018 8.81212 206.711 8.81212C206.543 8.81212 206.405 8.88153 206.289 9.02033C206.168 9.1707 206.11 9.35577 206.11 9.58133V26.3534C206.11 26.6657 206.144 26.9318 206.22 27.1457C206.254 27.2556 206.347 27.3944 206.694 27.3944C206.919 27.3944 207.052 27.3135 207.128 27.1342C207.214 26.9202 207.261 26.6599 207.261 26.3534V10.8363L217.538 26.0006C217.96 26.6541 218.457 26.712 218.961 26.0006L229.238 10.8363Z" fill="#55504A"/>
<path d="M236.393 27.539C236.179 27.539 236.051 27.5043 236.011 27.4349C235.97 27.3655 235.953 27.2035 235.953 26.9433V9.45982C235.953 9.13016 235.976 8.91617 236.023 8.81785C236.069 8.71953 236.254 8.66748 236.584 8.66748H252.054C252.384 8.66748 252.673 8.68483 252.928 8.71953C253.182 8.75423 253.309 8.93352 253.309 9.26318C253.309 9.54657 253.182 9.70272 252.928 9.73742C252.673 9.77213 252.384 9.78948 252.054 9.78948H237.399V17.2097H251.973C252.222 17.2097 252.43 17.2444 252.598 17.3138C252.766 17.3832 252.852 17.5278 252.852 17.7533C252.852 18.002 252.783 18.1639 252.638 18.2449C252.494 18.3259 252.315 18.3664 252.089 18.3664H237.399V26.4343H252.089C252.419 26.4343 252.708 26.4517 252.962 26.4864C253.217 26.5211 253.344 26.6772 253.344 26.9606C253.344 27.2903 253.24 27.4638 253.032 27.4927C252.824 27.5216 252.552 27.539 252.228 27.5505H236.404L236.393 27.539Z" fill="#55504A"/>
<path d="M236.393 27.6836C236.116 27.6836 235.959 27.6316 235.884 27.5101C235.849 27.4465 235.803 27.325 235.803 26.9433V9.45987C235.803 8.99141 235.849 8.83526 235.884 8.76007C235.959 8.59235 236.173 8.52295 236.578 8.52295H252.049C252.384 8.52295 252.679 8.5403 252.94 8.575C253.131 8.59813 253.449 8.72537 253.449 9.26324C253.449 9.61603 253.269 9.8358 252.94 9.88207C252.679 9.91677 252.379 9.93412 252.049 9.93412H237.538V17.0651H251.968C252.234 17.0651 252.465 17.1056 252.65 17.175C252.807 17.2386 252.997 17.389 252.997 17.7476C252.997 18.0541 252.899 18.2565 252.714 18.3664C252.552 18.459 252.344 18.5052 252.095 18.5052H237.55V26.284H252.095C252.431 26.284 252.726 26.3014 252.986 26.3361C253.31 26.3823 253.495 26.6021 253.495 26.9549C253.495 27.4638 253.258 27.6026 253.055 27.6316C252.841 27.6605 252.57 27.6778 252.234 27.6894H236.405L236.393 27.6836ZM236.139 27.3655C236.139 27.3655 236.196 27.3944 236.393 27.3944H252.217C252.535 27.3829 252.801 27.3655 253.003 27.3366C253.055 27.3308 253.194 27.3135 253.194 26.9491C253.194 26.6888 253.073 26.6368 252.94 26.6194C252.691 26.5847 252.408 26.5674 252.084 26.5674H237.249V18.2103H252.084C252.286 18.2103 252.442 18.1756 252.564 18.112C252.656 18.0599 252.703 17.9384 252.703 17.7476C252.703 17.5336 252.616 17.47 252.541 17.4411C252.39 17.3775 252.194 17.3485 251.968 17.3485H237.249V9.63916H252.049C252.367 9.63916 252.656 9.62181 252.905 9.58711C253.038 9.56976 253.159 9.51771 253.159 9.25745C253.159 8.93358 253.032 8.87574 252.905 8.85839C252.656 8.82369 252.373 8.80634 252.049 8.80634H236.578C236.208 8.80634 236.15 8.87574 236.15 8.87574C236.133 8.92201 236.098 9.05503 236.098 9.45987V26.9433C236.098 27.2788 236.133 27.3539 236.139 27.3597V27.3655Z" fill="#55504A"/>
<path d="M26.5501 10.5123C26.5443 10.4371 26.5327 10.3677 26.5038 10.2983C26.498 10.281 26.4865 10.2636 26.4807 10.2463C26.4229 10.1017 26.3361 9.96865 26.1915 9.85876L13.8785 0.477964C13.5431 0.223491 13.0804 0.223491 12.7391 0.477964L0.426127 9.85876C0.275757 9.97443 0.183221 10.119 0.125386 10.2694C0.0906853 10.3677 0.0675512 10.466 0.0675512 10.5701C0.0675512 10.5817 0.0617676 10.5933 0.0617676 10.6048V26.839C0.0617676 27.3133 0.44926 27.7008 0.923505 27.7008H8.28587C8.28587 27.7008 8.28587 27.6834 8.28587 27.6777V17.6607C8.28587 17.3946 8.33792 17.1633 8.43624 16.9724C8.55191 16.7469 8.78903 16.6312 9.14182 16.6312C9.49462 16.6312 9.66812 16.8221 9.73174 16.9782C9.80692 17.1633 9.84741 17.3946 9.84741 17.6607V18.6323C10.1019 18.1291 10.4431 17.7301 10.8827 17.4293C11.5188 16.9898 12.2186 16.6948 12.9647 16.5445C13.6992 16.3999 14.3527 16.3247 14.9022 16.3247C15.7234 16.3247 16.3133 16.3652 16.7066 16.4519C17.0941 16.5387 17.4238 16.6196 17.7187 16.7064C18.0021 16.7874 18.1583 17.0071 18.1583 17.3252C18.1583 17.493 18.1004 17.6549 17.9905 17.7937C17.8691 17.9498 17.6956 18.025 17.47 18.025C17.4064 18.025 17.3659 18.025 17.3312 18.0077C17.3254 18.0077 17.2907 17.9961 17.2503 17.9903C16.8396 17.8747 16.4521 17.7879 16.082 17.7243C15.7176 17.6607 15.3186 17.6318 14.9022 17.6318C13.6992 17.6318 12.6235 17.8689 11.6923 18.3431C11.3338 18.5224 11.0215 18.748 10.7554 19.0082C10.1482 19.6039 9.84163 20.4483 9.84163 21.3043V27.6834C9.84163 27.6834 9.84163 27.7008 9.84163 27.7066H25.7115C26.1857 27.7066 26.5732 27.3191 26.5732 26.8448V10.6106C26.5732 10.5759 26.5559 10.547 26.5559 10.5123H26.5501Z" fill="#55504A"/>
</g>
<defs>
<clipPath id="clip0_2_160">
<rect width="254.074" height="28" fill="white"/>
</clipPath>
</defs>
</svg>
